<svg id="Capa_1" enable-background="new 0 0 512 512" height="512" viewBox="0 0 512 512" width="512" xmlns="http://www.w3.org/2000/svg"><g><g><path d="m431.27 372.43c-3.28 12.24-7.9 23.95-13.69 35l-161.08 20-161.05-20c-5.79-11.05-10.41-22.76-13.69-35l174.755-20z" fill="#f5de46"/><path d="m64.515 168.777 107.985 32.723v-158h-144.878c-11.113 0-20.122 8.954-20.122 20v28.755c0 35.196 23.144 66.258 57.015 76.522z" fill="#736e6e"/><path d="m76.08 172.28-11.56-3.5c-33.88-10.27-57.02-41.33-57.02-76.53v-28.75c0-11.05 9.01-20 20.12-20h20c-11.11 0-20.12 9.44-20.12 21.08v30.3c0 33.93 19.36 64.22 48.58 77.4z" fill="#5a5555"/><path d="m447.485 168.777-107.985 32.723v-158h144.878c11.113 0 20.122 8.954 20.122 20v28.755c0 35.196-23.144 66.258-57.015 76.522z" fill="#736e6e"/><path d="m172.5 43.5v158l-92.67-28.08c4.46-14.83 9.54-29.63 15.2-44.32 13.16-34.11 27.76-63.31 40.82-85.6z" fill="#5a5555"/><path d="m432.89 173.2-93.39 28.3v-158h37.39c13.13 22.48 27.84 51.97 41.1 86.4 5.54 14.37 10.51 28.83 14.9 43.3z" fill="#5a5555"/><path d="m437.06 327c0 1.47-.01 2.93-.04 4.39-.23 14.16-2.22 27.9-5.75 41.04h-349.51c-3.53-13.14-5.52-26.88-5.75-41.04-.03-1.46-.04-2.92-.04-4.39 0-141.2 68.18-266.05 97.19-303.84 7.56-9.85 18.93-15.66 31.34-15.66h104c12.49 0 23.8 5.88 31.35 15.83 28.99 38.21 97.21 163.94 97.21 303.67z" fill="#9b9696"/><path d="m417.58 407.43c-30.21 57.69-92.16 97.07-161.08 97.07-48.14 0-92.87-19.21-125.76-50.45-14.2-13.49-26.19-29.22-35.29-46.62z" fill="#736e6e"/><path d="m125.45 407.43h-30c-5.79-11.05-10.41-22.76-13.69-35h30c3.28 12.24 7.9 23.95 13.69 35z" fill="#f3d332"/><path d="m234.5 7.5c-12.41 0-23.78 5.81-31.34 15.66-29.01 37.79-97.19 162.64-97.19 303.84 0 1.47.01 2.93.04 4.39.23 14.16 2.22 27.9 5.75 41.04h-30c-3.53-13.14-5.52-26.88-5.75-41.04-.03-1.46-.04-2.92-.04-4.39 0-141.2 68.18-266.05 97.19-303.84 7.56-9.85 18.93-15.66 31.34-15.66h30z" fill="#736e6e"/><path d="m271.47 503.87c-4.95.42-9.94.63-14.97.63-48.14 0-92.87-19.21-125.76-50.45-14.2-13.49-26.19-29.22-35.29-46.62h30c9.1 17.4 21.09 33.13 35.29 46.62 29.44 27.96 68.36 46.29 110.73 49.82z" fill="#5a5555"/><g><path d="m256.5 268.5c-23.435 0-42.5-19.065-42.5-42.5s19.065-42.5 42.5-42.5 42.5 19.065 42.5 42.5-19.065 42.5-42.5 42.5z" fill="#f5de46"/></g><g><path d="m276.5 248.5c-23.43 0-42.5-19.07-42.5-42.5 0-6.57 1.5-12.79 4.16-18.34-14.28 6.86-24.16 21.47-24.16 38.34 0 23.43 19.07 42.5 42.5 42.5 16.87 0 31.48-9.88 38.34-24.16-5.55 2.66-11.77 4.16-18.34 4.16z" fill="#f3d332"/></g><path d="m318.718 117.731-27.537 47.7c-1.301 2.254-4.121 3.148-6.464 2.016-8.541-4.128-18.112-6.447-28.217-6.447s-19.676 2.319-28.217 6.446c-2.343 1.132-5.163.238-6.464-2.016l-27.537-47.7c-1.412-2.446-.532-5.597 1.969-6.911 18.019-9.464 38.518-14.819 60.249-14.819s42.23 5.355 60.249 14.82c2.501 1.313 3.381 4.465 1.969 6.911z" fill="#f5de46"/><path d="m212.09 103.81 33.63 58.09c-6.14 1.02-12 2.92-17.44 5.55-2.34 1.13-5.16.23-6.46-2.02l-27.54-47.7c-1.41-2.45-.53-5.6 1.97-6.91 5.09-2.67 10.38-5.02 15.84-7.01z" fill="#f3d332"/><path d="m131.649 226.265 55.078-.002c2.603 0 4.787 1.995 4.978 4.59.696 9.46 3.473 18.909 8.526 27.66 5.052 8.751 11.846 15.881 19.691 21.214 2.152 1.463 2.788 4.352 1.486 6.606l-27.541 47.698c-1.412 2.446-4.582 3.259-6.969 1.75-17.206-10.873-32.094-25.948-42.959-44.768-10.866-18.82-16.477-39.25-17.29-59.588-.113-2.821 2.176-5.16 5-5.16z" fill="#f5de46"/><path d="m200.94 321.78-7.07 12.25c-1.41 2.45-4.58 3.26-6.97 1.75-17.21-10.87-32.1-25.95-42.96-44.77-10.87-18.82-16.48-39.25-17.29-59.58-.11-2.83 2.18-5.16 5-5.16h15.29c1.44 18.72 6.99 37.41 17 54.74 9.59 16.61 22.31 30.31 37 40.77z" fill="#f3d332"/><path d="m319.178 334.004-27.541-47.698c-1.301-2.254-.666-5.143 1.486-6.606 7.845-5.333 14.639-12.463 19.691-21.214s7.83-18.2 8.526-27.66c.191-2.596 2.375-4.59 4.978-4.59l55.078.002c2.824 0 5.113 2.338 5 5.16-.813 20.338-6.425 40.768-17.29 59.588-10.866 18.82-25.753 33.894-42.959 44.768-2.388 1.509-5.557.696-6.969-1.75z" fill="#f5de46"/><path d="m340.01 325.64c-4.41 3.7-9.04 7.07-13.86 10.11-2.39 1.51-5.56.7-6.97-1.75l-27.54-47.69c-1.3-2.26-.67-5.15 1.48-6.61 5.01-3.4 9.59-7.54 13.55-12.36z" fill="#f3d332"/></g><g><path d="m484.378 36h-126.729c-4.354-6.844-8.357-12.632-11.825-17.203-9.063-11.945-22.668-18.797-37.324-18.797h-104c-14.628 0-28.221 6.778-37.289 18.593-3.802 4.952-7.878 10.838-12.083 17.407h-127.506c-15.23 0-27.622 12.337-27.622 27.5v28.755c0 18.896 5.979 36.909 17.292 52.092 11.306 15.174 26.883 26.104 45.049 31.608l27.326 8.281c-11.865 41.189-21.197 90.268-21.197 142.764-.086 15.99 1.889 31.963 6.047 47.377 3.372 12.582 8.18 24.874 14.289 36.534 0 .001.001.002.002.003 9.415 17.998 21.784 34.341 36.767 48.573 35.651 33.864 82.148 52.513 130.925 52.513 34.803 0 69.025-9.684 98.971-28.004 29.34-17.949 53.113-43.222 68.752-73.084 0 0 0-.001.001-.001 6.109-11.659 10.915-23.948 14.286-36.526 4.168-15.429 6.135-31.412 6.051-47.385 0-45.581-7.368-94.24-21.502-142.984l26.601-8.061c18.166-5.505 33.743-16.435 45.049-31.608 11.312-15.183 17.291-33.196 17.291-52.092v-28.755c0-15.163-12.392-27.5-27.622-27.5zm-227.878 461c-44.916 0-87.743-17.185-120.595-48.388-10.67-10.137-19.896-21.429-27.531-33.683h36.759c4.143 0 7.5-3.357 7.5-7.5s-3.357-7.5-7.5-7.5h-45.075c-3.181-6.496-5.916-13.187-8.199-20h329.312c-2.282 6.813-5.017 13.504-8.198 20h-232.84c-4.143 0-7.5 3.357-7.5 7.5s3.357 7.5 7.5 7.5h224.512c-31.367 50.23-88.189 82.071-148.145 82.071zm173.021-165.73c-.184 11.339-1.563 22.635-4.107 33.66h-337.797c-2.878-12.394-4.215-25.165-4.147-37.93 0-81.223 23.093-154.22 42.465-201.154 1.58-3.829-.242-8.214-4.071-9.794-3.829-1.583-8.214.242-9.794 4.071-5.926 14.358-12.189 31.113-18.065 49.754l-27.315-8.277c-30.918-9.369-51.69-37.237-51.69-69.345v-28.755c0-6.893 5.662-12.5 12.622-12.5h118.373c-6.595 11.343-13.25 23.876-19.445 36.719-1.8 3.73-.234 8.214 3.496 10.014 3.73 1.801 8.215.236 10.014-3.496 12.717-26.361 27.315-51.225 39.05-66.51 6.207-8.088 15.461-12.727 25.39-12.727h104c9.923 0 19.172 4.688 25.375 12.863 14.368 18.938 38.299 59.616 58.453 111.928 17.271 44.405 38.241 116.722 37.193 191.479zm67.479-239.015c0 32.108-20.772 59.977-51.69 69.345l-26.611 8.064c-3.737-11.781-7.86-23.551-12.373-35.265-12.728-33.035-27.002-61.656-39.589-83.399h117.641c6.96 0 12.622 5.607 12.622 12.5z"/><path d="m227.577 275.687c-17.627-10.312-28.577-29.351-28.577-49.687.349-4.203-3.265-8.089-7.49-8h-65.01c-4.339-.016-7.751 3.69-7.5 8 0 23.98 6.3 47.615 18.219 68.35 12.049 20.944 29.446 38.43 50.311 50.563 3.459 2.1 8.313.802 10.266-2.733l32.49-56.27c2.062-3.572.852-8.14-2.709-10.223zm-38.894 52.277c-15.769-10.517-28.975-24.603-38.461-41.093-9.451-16.44-14.934-34.933-16.021-53.871h50.143c2.013 20.488 12.776 39.331 29.415 51.534z"/><path d="m299 226c0-23.435-19.065-42.5-42.5-42.5s-42.5 19.065-42.5 42.5 19.065 42.5 42.5 42.5 42.5-19.065 42.5-42.5zm-42.5 27.5c-15.163 0-27.5-12.337-27.5-27.5s12.337-27.5 27.5-27.5 27.5 12.337 27.5 27.5-12.337 27.5-27.5 27.5z"/><path d="m217.725 173.34c2.078 3.612 6.704 4.794 10.226 2.756 4.469-2.562 9.247-4.508 14.204-5.785 4.011-1.033 6.425-5.122 5.392-9.134-1.032-4.011-5.119-6.425-9.134-5.392-3.847.99-7.607 2.301-11.243 3.913l-25.076-43.439c16.83-8.366 35.488-12.759 54.407-12.759s37.577 4.393 54.407 12.759l-25.077 43.439c-2.727-1.209-5.526-2.249-8.376-3.11-3.964-1.195-8.149 1.045-9.349 5.009-1.199 3.965 1.044 8.15 5.009 9.349 4.147 1.254 8.163 2.987 11.935 5.15 3.585 2.059 8.161.824 10.227-2.756l32.489-56.279c2.084-3.45.783-8.3-2.746-10.246-20.764-11.982-44.457-18.315-68.52-18.315s-47.756 6.333-68.519 18.314c-3.53 1.946-4.83 6.796-2.746 10.246z"/><path d="m386.5 218h-65.01c-4.245-.111-7.874 3.779-7.49 8 0 20.336-10.95 39.375-28.577 49.687-3.561 2.083-4.771 6.651-2.708 10.224l32.49 56.27c1.953 3.536 6.807 4.833 10.266 2.733 9.115-5.301 17.637-11.669 25.329-18.927 3.013-2.843 3.15-7.59.308-10.603-2.843-3.012-7.589-3.148-10.603-.308-5.026 4.743-10.45 9.06-16.188 12.887l-25.076-43.429c16.639-12.203 27.402-31.046 29.415-51.534h50.143c-1.087 18.938-6.569 37.431-16.02 53.87-3.138 3.95-3.863 9.934 1.017 12.837 4.963 3.078 10.031-.587 11.986-5.359 11.918-20.733 18.218-44.368 18.218-68.348.251-4.31-3.161-8.016-7.5-8z"/></g></g></svg>