<svg height="480pt" viewBox="-104 0 480 480" width="480pt" xmlns="http://www.w3.org/2000/svg"><path d="m200 136h-128l-64-64h256zm0 0" fill="#cfdfe8"/><path d="m8 40h256v32h-256zm0 0" fill="#5a6470"/><path d="m136 8c13.253906 0 24 10.746094 24 24v80h-48v-80c0-13.253906 10.746094-24 24-24zm0 0" fill="#dd3e46"/><path d="m248 272c.117188 24.410156-3.527344 48.695312-10.800781 72-17.917969 56.71875-56.558594 96-101.199219 96s-83.28125-39.28125-101.199219-96c-7.273437-23.304688-10.917969-47.589844-10.800781-72 0-92.800781 50.160156-184 112-184s112 91.199219 112 184zm0 0" fill="#5a6470"/><path d="m136 480c-4.417969 0-8-3.582031-8-8v-32c0-4.417969 3.582031-8 8-8s8 3.582031 8 8v32c0 4.417969-3.582031 8-8 8zm0 0" fill="#dd3e46"/><path d="m237.199219 344c-17.917969 56.71875-56.558594 96-101.199219 96s-83.28125-39.28125-101.199219-96zm0 0" fill="#cfdfe8"/><path d="m144 416c-3.914062-.003906-7.25-2.839844-7.882812-6.703125-.636719-3.863281 1.617187-7.617187 5.324218-8.871094 12.390625-4.773437 22.1875-14.5625 26.964844-26.953125 1.398438-4.199218 5.933594-6.46875 10.128906-5.074218 4.199219 1.398437 6.46875 5.933593 5.074219 10.128906-6.335937 17.183594-19.882813 30.730468-37.066406 37.066406-.820313.269531-1.679688.410156-2.542969.40625zm0 0" fill="#5a6470"/><g fill="#ffd782"><path d="m136 224-16 16-56-32c5.515625-19.355469 20.644531-34.484375 40-40zm0 0"/><path d="m136 224 16 16 56-32c-5.515625-19.355469-20.644531-34.484375-40-40zm0 0"/><path d="m152 248h-32l-8 56c14.675781 9.207031 33.324219 9.207031 48 0zm0 0"/></g><path d="m160 236.105469c0 13.253906-10.746094 24-24 24s-24-10.746094-24-24c0-13.257813 10.746094-24 24-24s24 10.742187 24 24zm0 0" fill="#5a6470"/><path d="m144 416c.859375 0 1.710938-.136719 2.527344-.40625 17.183594-6.335938 30.730468-19.882812 37.066406-37.066406 1.394531-4.195313-.875-8.730469-5.074219-10.128906-4.195312-1.394532-8.730469.875-10.128906 5.074218-4.777344 12.390625-14.574219 22.179688-26.964844 26.953125-3.710937 1.257813-5.964843 5.015625-5.324219 8.878907.636719 3.863281 3.980469 6.699218 7.898438 6.695312zm0 0"/><path d="m264 32h-96c0-17.671875-14.328125-32-32-32s-32 14.328125-32 32h-96c-4.417969 0-8 3.582031-8 8v32c.109375.882812.285156 1.753906.527344 2.609375.089844.253906.152344.503906.265625.75.375.84375.898437 1.617187 1.542969 2.28125l53.734374 53.734375c-26.351562 42.160156-40.242187 90.910156-40.070312 140.625-.15625 29.015625 4.921875 57.824219 14.984375 85.039062.382813 1.023438.800781 2.023438 1.191406 3.039063.683594 1.722656 1.382813 3.429687 2.097657 5.113281 19.117187 45.367188 50.6875 74.96875 86.804687 81.402344 1.523437.277344 3.042969.519531 4.578125.710938.800781.09375 1.601562.207031 2.34375.28125v24.414062c0 4.417969 3.582031 8 8 8s8-3.582031 8-8v-24.414062c.800781-.074219 1.601562-.1875 2.34375-.28125 1.535156-.191407 3.054688-.433594 4.578125-.710938 36.117187-6.402344 67.6875-36 86.804687-81.402344.722657-1.683594 1.421876-3.390625 2.097657-5.113281.398437-1.015625.800781-2.015625 1.191406-3.039063 10.0625-27.214843 15.140625-56.023437 14.984375-85.039062.167969-49.710938-13.726562-98.457031-40.078125-140.609375l53.734375-53.734375c.644531-.664062 1.167969-1.4375 1.542969-2.28125.113281-.246094.175781-.496094.265625-.75.246094-.859375.425781-1.738281.535156-2.625v-32c0-4.417969-3.582031-8-8-8zm-8 16v16h-88v-16zm-136-16c0-8.835938 7.164062-16 16-16s16 7.164062 16 16v49.832031c-10.527344-2.441406-21.472656-2.441406-32 0zm-104 16h88v16h-88zm11.3125 32h76.6875v7.246094c-14.941406 7.386718-28.035156 18.03125-38.3125 31.152344zm135.953125 346.230469c-.410156.175781-.800781.328125-1.234375.488281-2.648438 1.066406-5.355469 1.980469-8.109375 2.738281-1.898437.503907-3.800781 1-5.730469 1.34375-1.039062.191407-2.078125.351563-3.128906.496094-6.003906.9375-12.121094.9375-18.125 0-1.050781-.144531-2.089844-.304687-3.128906-.496094-1.929688-.34375-3.832032-.839843-5.730469-1.34375-2.753906-.757812-5.460937-1.671875-8.109375-2.738281-.410156-.160156-.800781-.3125-1.234375-.488281-25.957031-11.101563-48.695313-37.664063-62.566406-74.230469h179.664062c-13.832031 36.566406-36.609375 63.128906-62.566406 74.230469zm67.992187-90.230469h-190.515624c-5.855469-20.828125-8.800782-42.363281-8.742188-64 0-92.113281 49.601562-176 104-176s104 83.886719 104 176c.058594 21.636719-2.886719 43.171875-8.742188 64zm-24.945312-217.601562c-10.277344-13.121094-23.371094-23.765626-38.3125-31.152344v-7.246094h76.6875zm0 0"/><path d="m161.054688 164-23.015626 40.28125c-.6875-.050781-1.34375-.210938-2.039062-.210938s-1.351562.160157-2.039062.210938l-23.015626-40.28125c-1.78125-3.113281-5.410156-4.664062-8.890624-3.792969-22.242188 6.191407-39.625 23.570313-45.816407 45.816407-.867187 3.476562.679688 7.109374 3.792969 8.886718l44.394531 25.371094c.734375 5.582031 2.941407 10.871094 6.398438 15.320312l-6.753907 47.199219c-.4375 3.050781.917969 6.082031 3.480469 7.792969 8.097657 5.574219 17.683594 8.574219 27.511719 8.605469 10.382812-.121094 20.535156-3.058594 29.378906-8.503907 2.5625-1.710937 3.917969-4.742187 3.480469-7.792968l-6.675781-46.664063c0-.167969-.125-.300781-.15625-.46875 3.5-4.46875 5.742187-9.789062 6.484375-15.417969l44.425781-25.40625c3.113281-1.78125 4.664062-5.410156 3.792969-8.890624-6.191407-22.242188-23.570313-39.625-45.816407-45.816407-3.480468-.890625-7.128906.648438-8.921874 3.761719zm-41.054688 72.105469c0-8.839844 7.164062-16 16-16s16 7.160156 16 16c0 8.835937-7.164062 16-16 16s-16-7.164063-16-16zm-19.640625-58.34375 18.089844 31.636719c-5.136719 3.390624-9.191407 8.179687-11.6875 13.800781l-33.160157-18.941407c5.042969-12.039062 14.671876-21.574218 26.757813-26.496093zm20.320313 122.015625 4.800781-33.601563c6.78125 2.558594 14.257812 2.558594 21.039062 0l4.800781 33.390625c-9.683593 4.585938-20.894531 4.660156-30.640624.210938zm77.71875-95.519532-33.160157 18.941407c-2.492187-5.628907-6.546875-10.429688-11.6875-13.824219l18.089844-31.640625c12.089844 4.929687 21.722656 14.472656 26.757813 26.523437zm0 0"/></svg>