<svg height="512" viewBox="0 0 64 64" width="512" xmlns="http://www.w3.org/2000/svg"><g id="Filled_outline" data-name="Filled outline"><path d="m34 16h-4l-10 5v31l9 9h6l9-9v-31z" fill="#aabece"/><path d="m34 16h-4l-10-7v-6h24v6z" fill="#7d8d9c"/><g fill="#fcf05a"><path d="m34 38a1.994 1.994 0 0 1 -1.44 1.911l3.176 5.161a8 8 0 0 0 4.264-7.072z"/><path d="m32 36a1.988 1.988 0 0 1 1.382.559l3.928-4.532a7.969 7.969 0 0 0 -10.593-.027l3.9 4.554a1.994 1.994 0 0 1 1.383-.554z"/><path d="m30 38h-6a8 8 0 0 0 4.264 7.072l3.176-5.161a1.994 1.994 0 0 1 -1.44-1.911z"/></g><circle cx="32" cy="38" fill="#394d5c" r="2"/><path d="m29 61h6l5-5h-16z" fill="#394d5c"/><path d="m20 20h14v2h-14z" fill="#7d8d9c"/><path d="m36 20h8v2h-8z" fill="#7d8d9c"/><path d="m25 30h-2v-6h4v2h-2z" fill="#f4f4e6"/><path d="m37.707 53.707-1.414-1.414 2.707-2.707v-3.586h2v4.414z" fill="#f4f4e6"/><path d="m30 3h4v13h-4z" fill="#cfdfe8"/><path d="m37.555 9.832-1.11-1.664 2.555-1.703v-3.465h2v4.535z" fill="#f4f4e6"/><path d="m29 24h2v2h-2z" fill="#f4f4e6"/><path d="m25 26h2v-2h-4v6h2z"/><path d="m39 49.586-2.707 2.707 1.414 1.414 3.293-3.293v-4.414h-2z"/><path d="m45 2h-26v7.521l9.051 6.335-9.051 4.526v32.032l9.586 9.586h6.828l9.586-9.586v-32.032l-9.051-4.526 9.051-6.335zm-14 2h2v11h-2zm-10 4.479v-4.479h8v10.079zm13.586 51.521h-5.172l-3-3h11.172zm5.178-40h-3.764v2h7v29.586l-3.414 3.414h-15.172l-3.414-3.414v-29.586h13v-2h-9.764l6-3h3.528zm3.236-11.521-8 5.6v-10.079h4v2.465l-2.555 1.7 1.11 1.664 3.445-2.294v-3.535h2z"/><path d="m29 24h2v2h-2z"/><path d="m26.056 31.253-.741.652 4.039 4.712a3.054 3.054 0 0 0 -.17.383h-6.184v1a8.983 8.983 0 0 0 4.8 7.955l.828.439 3.318-5.394c.019 0 .036.005.054.005s.035-.005.054-.005l3.322 5.4.828-.439a8.983 8.983 0 0 0 4.796-7.961v-1h-6.184a3.085 3.085 0 0 0 -.166-.376l4.062-4.687-.737-.657a8.968 8.968 0 0 0 -11.919-.027zm6.944 6.747a1 1 0 1 1 -1-1 1 1 0 0 1 1 1zm-5.064 5.7a6.981 6.981 0 0 1 -2.865-4.7h4.113a3 3 0 0 0 .866 1.261zm8.128 0-2.114-3.439a2.99 2.99 0 0 0 .866-1.261h4.113a6.981 6.981 0 0 1 -2.865 4.7zm-.2-11.525-2.671 3.075a2.971 2.971 0 0 0 -2.379 0l-2.651-3.094a7.109 7.109 0 0 1 7.699.015z"/></g></svg>