<svg id="Layer_3" height="512" viewBox="0 0 64 64" width="512" xmlns="http://www.w3.org/2000/svg" data-name="Layer 3"><path d="m19 40h26v22h-26z" fill="#976949"/><path d="m25.417 40-5.255-16.641a4.987 4.987 0 0 0 -1.734 1.15l4.892 15.491z" fill="#c7e2fb"/><path d="m19 40v19h19a4 4 0 0 0 4-4v-15z" fill="#c18e5c"/><path d="m28 40v10l2-2 2 2 2-2 2 2v-10z" fill="#f5b95b"/><path d="m7 28v-1a25 25 0 0 1 25-25 25 25 0 0 1 25 25v1a5 5 0 0 0 -5-5 5 5 0 0 0 -5 5 5 5 0 0 0 -5-5 5 5 0 0 0 -5 5 5 5 0 0 0 -5-5 5 5 0 0 0 -5 5 5 5 0 0 0 -5-5 5 5 0 0 0 -5 5 5 5 0 0 0 -5-5 5 5 0 0 0 -5 5z" fill="#e47c6f"/><path d="m32 23a4.988 4.988 0 0 0 -1 .1v16.9h2v-16.9a4.988 4.988 0 0 0 -1-.1z" fill="#c7e2fb"/><path d="m43.869 23.369-4.377 16.631h2.069l4.06-15.431a4.982 4.982 0 0 0 -1.752-1.2z" fill="#c7e2fb"/><path d="m38 55h4v2h-4z" fill="#cda57d"/><path d="m38 58h4v2h-4z" fill="#cda57d"/><path d="m31.667 2.867.333-.867-4.068 3.254a29.128 29.128 0 0 0 -10.932 22.746 5 5 0 0 1 10 0 70.006 70.006 0 0 1 4.667-25.133z" fill="#f5b95b"/><path d="m36.068 5.254-4.068-3.254.333.867a70.006 70.006 0 0 1 4.667 25.133 5 5 0 0 1 10 0 29.128 29.128 0 0 0 -10.932-22.746z" fill="#f5b95b"/><path d="m28 40v10l2-2 2 2v-10z" fill="#f9d18f"/><path d="m46 28a1 1 0 0 0 2 0 4 4 0 0 1 8 0 1 1 0 0 0 2 0v-1a26 26 0 0 0 -52 0v1a1 1 0 0 0 2 0 4 4 0 0 1 8 0 1 1 0 0 0 2 0 3.946 3.946 0 0 1 .57-2.024l4.07 13.024h-3.64a1 1 0 0 0 -1 1v22a1 1 0 0 0 1 1h26a1 1 0 0 0 1-1v-22a1 1 0 0 0 -1-1h-3.64l4.07-13.024a3.946 3.946 0 0 1 .57 2.024zm-8.147-4.324a70.628 70.628 0 0 0 -3.688-18.664l1.278 1.023a27.968 27.968 0 0 1 10.15 17.171 5.963 5.963 0 0 0 -7.74.47zm-8.853 17.324h6v6.586l-.293-.293a1 1 0 0 0 -1.414 0l-1.293 1.293-1.293-1.293a1 1 0 0 0 -1.414 0l-.293.293zm3-19a5.965 5.965 0 0 0 -3.83 1.4 68.669 68.669 0 0 1 3.83-18.5 68.669 68.669 0 0 1 3.83 18.5 5.965 5.965 0 0 0 -3.83-1.4zm-10 0a5.96 5.96 0 0 0 -3.593 1.206 27.968 27.968 0 0 1 10.15-17.171l1.278-1.022a70.573 70.573 0 0 0 -3.688 18.663 5.974 5.974 0 0 0 -4.147-1.676zm33.714 1.291a5.97 5.97 0 0 0 -8.011.541 29.947 29.947 0 0 0 -11.011-19.358l-1.556-1.245a24.04 24.04 0 0 1 20.578 20.062zm-43.714-1.291a5.973 5.973 0 0 0 -3.714 1.291 24.04 24.04 0 0 1 20.578-20.062l-1.556 1.245a29.947 29.947 0 0 0 -11.008 19.358 5.97 5.97 0 0 0 -4.3-1.832zm8.19 2.453a3.948 3.948 0 0 1 1.81-.453 4 4 0 0 1 4 4 1 1 0 0 0 2 0 4 4 0 0 1 3-3.858v14.858h-6.265zm23.81 36.547h-24v-20h7v9a1 1 0 0 0 1.707.707l1.293-1.293 1.293 1.293a1 1 0 0 0 1.414 0l1.293-1.293 1.293 1.293a1 1 0 0 0 .707.293.987.987 0 0 0 .383-.076 1 1 0 0 0 .617-.924v-9h7zm-11-22v-14.858a4 4 0 0 1 3 3.858 1 1 0 0 0 2 0 4 4 0 0 1 4-4 3.948 3.948 0 0 1 1.81.453l-4.545 14.547z"/><path d="m38 55h4v2h-4z"/><path d="m38 58h4v2h-4z"/></svg>